<svg width="92" height="50" viewBox="0 0 92 50" fill="none" xmlns="http://www.w3.org/2000/svg">
<path d="M17.4823 49.1095H11.5664V17.8993C11.5664 17.1788 11.3009 16.572 10.8458 16.1169C10.2391 15.5102 9.40478 15.2827 8.4188 15.4343C7.50866 15.586 6.67436 16.1549 5.87799 17.2167V49.1474H0V9.85974H5.91591V11.9834C7.2432 10.3527 8.94971 9.51843 11.0354 9.51843C12.5524 9.51843 13.8038 9.85974 14.7898 10.5423C15.7758 11.2249 16.4963 11.9834 16.9134 12.8556C17.3306 13.7278 17.5202 15.1689 17.5202 17.2167L17.4823 49.1095Z" fill="white"/>
<path d="M27.6454 5.87779H21.7295V0.0377197H27.6454V5.87779ZM27.6454 49.1094H21.7295V9.85965H27.6454V49.1094Z" fill="white"/>
<path d="M48.8443 40.6909C48.8443 43.1179 48.01 45.2036 46.3034 46.9101C44.5969 48.6167 42.5491 49.4889 40.1221 49.4889C37.695 49.4889 35.6093 48.6167 33.8269 46.9101C32.0446 45.2036 31.1724 43.1179 31.1724 40.7288V18.4303C31.1724 16.0033 32.0446 13.9555 33.7511 12.2111C35.4576 10.4666 37.5433 9.63232 40.0083 9.63232C42.4733 9.63232 44.5211 10.5045 46.2276 12.2111C47.9341 13.9176 48.8063 16.0033 48.8063 18.3924V32.2721H42.8904V18.2407C42.8904 17.4823 42.587 16.7997 42.0182 16.2308C41.4494 15.662 40.7668 15.3586 40.0083 15.3586C39.174 15.3586 38.4914 15.662 37.9226 16.2308C37.3537 16.7997 37.0504 17.4823 37.0504 18.2407V40.7667C37.0504 41.5631 37.3537 42.2078 37.9226 42.7766C38.4914 43.3454 39.174 43.6488 40.0083 43.6488C40.8047 43.6488 41.4494 43.3454 42.0182 42.7766C42.587 42.2078 42.8904 41.5252 42.8904 40.7667V38.5672H48.8063L48.8443 40.6909Z" fill="white"/>
<path d="M75.0108 10.6562C73.9489 9.89777 72.7733 9.59439 71.2944 9.59439C69.1707 9.59439 67.4642 10.4287 66.1748 12.0594V0H60.221V34.244C60.221 35.1921 59.8038 36.1401 58.742 36.3677C55.5565 36.8986 53.0916 39.5532 53.0916 42.9662C53.0916 46.5688 56.0874 49.5647 59.6901 49.5647C61.2828 49.5647 62.8756 48.92 63.9374 47.972L64.0512 47.8582C64.2787 47.7444 64.3545 47.5548 64.4683 47.4411C64.6958 47.2135 64.9992 47.1377 65.3026 47.1377C65.7197 47.1377 66.061 47.2514 66.3644 47.4411C67.6538 48.92 69.3603 49.6785 71.3702 49.6785H71.5977C72.9629 49.6785 74.2523 49.3751 75.2004 48.6166C76.1484 47.972 76.9069 47.1377 77.324 46.2655C77.6274 45.4312 77.8549 44.1418 77.8549 42.2077V17.3685C77.8549 15.3586 77.6274 13.8417 77.2103 13.0074C76.7173 12.1352 76.0726 11.3768 75.0108 10.6562ZM71.8253 39.174V41.4114C71.8253 42.1698 71.5977 42.7766 71.0668 43.2317C70.4221 43.8763 69.7016 44.0659 68.7156 43.9901C67.8813 43.8763 66.8953 43.2317 66.1748 42.094V17.3685C66.9333 16.3067 67.7676 15.662 68.7156 15.5482C69.6637 15.4345 70.5359 15.662 71.0668 16.3067C71.5977 16.7238 71.8253 17.3685 71.8253 18.127V39.174Z" fill="white"/>
<path d="M86.8047 12.0214V9.89774H80.8508V49.3751H86.8047V17.2547C87.639 16.1929 88.5112 15.5482 89.4592 15.4344C90.4073 15.3207 91.2795 15.5482 92 16.1929V9.59436C89.8764 9.48059 88.094 10.3149 86.8047 12.0214Z" fill="white"/>
<path d="M59.6899 46.4171C61.5748 46.4171 63.1029 44.8891 63.1029 43.0041C63.1029 41.1191 61.5748 39.5911 59.6899 39.5911C57.8049 39.5911 56.2769 41.1191 56.2769 43.0041C56.2769 44.8891 57.8049 46.4171 59.6899 46.4171Z" fill="black"/>
</svg>
