<svg width="867" height="608" viewBox="0 0 867 608" fill="none" xmlns="http://www.w3.org/2000/svg">
<g clip-path="url(#clip0_2851_1630)">
<path d="M467.015 477.419C296.583 622.98 175.586 633.259 113.603 571.276C56.4935 514.138 103.828 370.958 219.279 229.515L0 10.2639H140.155L357.95 228.059C220.484 366.365 140.351 513.634 181.748 555.031C216.059 589.397 321.651 541.755 435.618 446.049L466.987 477.419H467.015Z" fill="#F5F5FA"/>
<path d="M866.752 596.96H726.598L508.747 379.109C646.213 240.831 726.373 93.5614 684.977 52.1647C650.638 17.7702 544.962 65.4688 430.995 161.23L399.625 129.861C570.114 -15.784 691.139 -26.0632 753.122 35.9478C810.259 93.0853 762.925 236.265 647.473 377.709L866.752 596.96Z" fill="#F5F5FA"/>
</g>
<defs>
<clipPath id="clip0_2851_1630">
<rect width="866.752" height="607.207" fill="white"/>
</clipPath>
</defs>
</svg>
