<svg width="38" height="52" viewBox="0 0 38 52" fill="none" xmlns="http://www.w3.org/2000/svg">
<path d="M24.6667 1.33333V2.66667H23.3333H22V12V21.3333H23.3333H24.6667V22.6667V24H30H35.3333V22.6667V21.3333H36.6667H38V12V2.66667H36.6667H35.3333V1.33333V0H30H24.6667V1.33333ZM32.6667 5.33333V8H31.3333H30V9.33333V10.6667H28.6667H27.3333V6.66667V2.66667H30H32.6667V5.33333ZM32.6667 17.3333V21.3333H30H27.3333V18.6667V16H28.6667H30V14.6667V13.3333H31.3333H32.6667V17.3333Z" fill="#F4BC21"/>
<path d="M2.66667 1.33333V2.66667H1.33333H0V5.33333V8H2.66667H5.33333V5.33333V2.66667H8H10.6667V6.66667V10.6667H9.33333H8V12V13.3333H6.66667H5.33333V14.6667V16H4H2.66667V17.3333V18.6667H1.33333H0V21.3333V24H8H16V22.6667V21.3333H10.6667H5.33333V20V18.6667H6.66667H8V17.3333V16H9.33333H10.6667V14.6667V13.3333H12H13.3333V12V10.6667H14.6667H16V6.66667V2.66667H14.6667H13.3333V1.33333V0H8H2.66667V1.33333Z" fill="#F4BC21"/>
<path d="M2.66667 29.3333V30.6667H1.33333H0V33.3333V36H2.66667H5.33333V33.3333V30.6667H8H10.6667V34.6667V38.6667H9.33333H8V40V41.3333H6.66667H5.33333V42.6667V44H4H2.66667V45.3333V46.6667H1.33333H0V49.3333V52H8H16V50.6667V49.3333H10.6667H5.33333V48V46.6667H6.66667H8V45.3333V44H9.33333H10.6667V42.6667V41.3333H12H13.3333V40V38.6667H14.6667H16V34.6667V30.6667H14.6667H13.3333V29.3333V28H8H2.66667V29.3333Z" fill="#F4BC21"/>
<path d="M22 34.6667V41.3333H24.6667H27.3333V40V38.6667H30H32.6667V44V49.3333H30H27.3333V48V46.6667H24.6667H22V48V49.3333H23.3333H24.6667V50.6667V52H30H35.3333V50.6667V49.3333H36.6667H38V44V38.6667H36.6667H35.3333V37.3333V36H31.3333H27.3333V33.3333V30.6667H32.6667H38V29.3333V28H30H22V34.6667Z" fill="#F4BC21"/>
</svg>
