<svg width="276" height="40" viewBox="0 0 276 40" fill="none" xmlns="http://www.w3.org/2000/svg">
<path d="M3.26531 0.952381C3.26531 1.82313 3.21088 1.90476 2.44898 1.90476C1.71429 1.90476 1.63265 1.9864 1.63265 2.72109C1.63265 3.45578 1.55102 3.53741 0.816327 3.53741H0V20.1361V36.7347H0.816327C1.55102 36.7347 1.63265 36.8163 1.63265 37.551C1.63265 38.2857 1.71429 38.3673 2.44898 38.3673C3.18367 38.3673 3.26531 38.449 3.26531 39.1837V40H137.823H272.381V39.1837C272.381 38.449 272.463 38.3673 273.197 38.3673C273.932 38.3673 274.014 38.2857 274.014 37.551C274.014 36.8163 274.095 36.7347 274.83 36.7347H275.646V20.1361V3.53741H274.83C274.095 3.53741 274.014 3.45578 274.014 2.72109C274.014 1.9864 273.932 1.90476 273.197 1.90476C272.435 1.90476 272.381 1.82313 272.381 0.952381V0H137.823H3.26531V0.952381ZM270.748 4.35374C270.748 5.08844 270.83 5.17007 271.565 5.17007H272.381V20.1361V35.102H271.565C270.83 35.102 270.748 35.1837 270.748 35.9184V36.7347H137.823H4.89796V35.9184C4.89796 35.1837 4.81633 35.102 4.08163 35.102H3.26531V20.1361V5.17007H4.08163C4.81633 5.17007 4.89796 5.08844 4.89796 4.35374V3.53741H137.823H270.748V4.35374Z" fill="white"/>
<path d="M8.21751 20.0545L8.29914 31.7007L12.4624 31.7824L16.5985 31.864V20.1361V8.43544H12.3808H8.16309L8.21751 20.0545Z" fill="white"/>
<path d="M19.9182 20.0545L19.9998 31.7007L24.1631 31.7824L28.2991 31.864V20.1361V8.43544H24.0815H19.8638L19.9182 20.0545Z" fill="white"/>
<path d="M31.6191 20.0545L31.7008 31.7007L35.864 31.7824L40.0001 31.864V20.1361V8.43544H35.7824H31.5647L31.6191 20.0545Z" fill="white"/>
<path d="M43.3198 20.0545L43.4014 31.7007L47.5647 31.7824L51.7008 31.864V20.1361V8.43544H47.4831H43.2654L43.3198 20.0545Z" fill="white"/>
<path d="M55.0205 20.0545L55.1021 31.7007L59.2654 31.7824L63.4014 31.864V20.1361V8.43544H59.1838H54.9661L55.0205 20.0545Z" fill="white"/>
<path d="M66.7209 20.0545L66.8026 31.7007L70.9658 31.7824L75.1019 31.864V20.1361V8.43544H70.8842H66.6665L66.7209 20.0545Z" fill="white"/>
<path d="M78.4216 20.0545L78.5032 31.7007L82.6665 31.7824L86.8026 31.864V20.1361V8.43544H82.5849H78.3672L78.4216 20.0545Z" fill="white"/>
<path d="M90.1225 20.0545L90.2042 31.7007L94.3674 31.7824L98.5035 31.864V20.1361V8.43544H94.2858H90.0681L90.1225 20.0545Z" fill="white"/>
<path d="M101.823 20.0545L101.905 31.7007L106.068 31.7824L110.204 31.864V20.1361V8.43544H105.986H101.769L101.823 20.0545Z" fill="white"/>
<path d="M113.605 8.78918C113.524 8.95245 113.496 14.2041 113.524 20.4082L113.605 31.7007L117.769 31.7824L121.905 31.864V20.1361V8.43544H117.823C114.803 8.43544 113.687 8.51707 113.605 8.78918Z" fill="white"/>
<path d="M125.306 8.78918C125.225 8.95245 125.197 14.2041 125.225 20.4082L125.306 31.7007L129.469 31.7824L133.606 31.864V20.1361V8.43544H129.524C126.503 8.43544 125.388 8.51707 125.306 8.78918Z" fill="white"/>
<path d="M137.143 20.136V31.8367H141.225H145.306V20.136V8.43531H141.225H137.143V20.136Z" fill="white"/>
<path d="M148.844 20.136V31.8367H152.925H157.007V20.136V8.43531H152.925H148.844V20.136Z" fill="white"/>
<path d="M160.544 20.136V31.8367H164.626H168.707V20.136V8.43531H164.626H160.544V20.136Z" fill="white"/>
<path d="M172.245 20.136V31.8367H176.327H180.408V20.136V8.43531H176.327H172.245V20.136ZM178.775 19.9999V29.9319H176.327H173.878V19.9999V10.068H176.327H178.775V19.9999Z" fill="white"/>
</svg>
