<svg width="59" height="52" viewBox="0 0 59 52" fill="none" xmlns="http://www.w3.org/2000/svg">
<path d="M44 11.5V23H51.5H59V21.7222V20.4444H54H49V16.6111V12.7778H52.75H56.5V11.5V10.2222H52.75H49V6.38889V2.55556H54H59V1.27778V0H51.5H44V11.5Z" fill="#FF0004"/>
<path d="M0 1.27778V2.55556H2.5H5V11.5V20.4444H2.5H0V21.7222V23H7.5H15V21.7222V20.4444H12.5H10V11.5V2.55556H12.5H15V1.27778V0H7.5H0V1.27778Z" fill="#FF0004"/>
<path d="M20 11.5V23H22.7143H25.4286V16.6111V10.2222H26.7857H28.1429V11.5V12.7778H29.5H30.8571V11.5V10.2222H32.2143H33.5714V16.6111V23H36.2857H39V11.5V0H36.2857H33.5714V2.55556V5.11111H32.2143H30.8571V6.38889V7.66667H29.5H28.1429V6.38889V5.11111H26.7857H25.4286V2.55556V0H22.7143H20V11.5Z" fill="#FF0004"/>
<path d="M44 40.5V52H46.5H49V46.8889V41.7778H52.75H56.5V40.5V39.2222H57.75H59V35.3889V31.5556H57.75H56.5V30.2778V29H50.25H44V40.5ZM54 35.3889V39.2222H51.5H49V35.3889V31.5556H51.5H54V35.3889Z" fill="#FF0004"/>
<path d="M24.5 29.3333V30.6667H23.25H22V34.6667V38.6667H23.25H24.5V40V41.3333H28.25H32V45.3333V49.3333H29.5H27V46.6667V44H24.5H22V46.6667V49.3333H23.25H24.5V50.6667V52H29.5H34.5V50.6667V49.3333H35.75H37V45.3333V41.3333H35.75H34.5V40V38.6667H30.75H27V34.6667V30.6667H29.5H32V33.3333V36H34.5H37V33.3333V30.6667H35.75H34.5V29.3333V28H29.5H24.5V29.3333Z" fill="#FF0004"/>
<path d="M0 39.2222V49.4444H1.33333H2.66667V50.7222V52H8H13.3333V50.7222V49.4444H14.6667H16V39.2222V29H13.3333H10.6667V39.2222V49.4444H8H5.33333V39.2222V29H2.66667H0V39.2222Z" fill="#FF0004"/>
</svg>
