<svg width="196" height="46" viewBox="0 0 196 46" fill="none" xmlns="http://www.w3.org/2000/svg">
<path d="M7.61905 5.90476V7.80952H5.71429H3.80952V9.71429V11.619H1.90476H0V14.4762V17.3333H1.90476H3.80952V19.2381V21.1429H1.90476H0V24V26.8571H1.90476H3.80952V28.7619V30.6667H1.90476H0V33.5238V36.381H1.90476H3.80952V38.2857V40.1905H5.71429H7.61905V42.0952V44H10.4762H13.3333V42.0952V40.1905H15.2381H17.1429V42.0952V44H20H22.8571V42.0952V40.1905H24.7619H26.6667V42.0952V44H29.5238H32.381V42.0952V40.1905H34.2857H36.1905V38.2857V36.381H38.0952H40V33.5238V30.6667H38.0952H36.1905V28.7619V26.8571H38.0952H40V24V21.1429H38.0952H36.1905V19.2381V17.3333H38.0952H40V14.4762V11.619H38.0952H36.1905V9.71429V7.80952H34.2857H32.381V5.90476V4H29.5238H26.6667V5.90476V7.80952H24.7619H22.8571V5.90476V4H20H17.1429V5.90476V7.80952H15.2381H13.3333V5.90476V4H10.4762H7.61905V5.90476ZM19.0476 14.4762V15.4286H16.1905H13.3333V16.381V17.3333H16.1905H19.0476V20.1905V23.0476H15.2381H11.4286V22.0952V21.1429H14.2857H17.1429V20.1905V19.2381H14.2857H11.4286V16.381V13.5238H15.2381H19.0476V14.4762ZM28.5714 15.4286V17.3333H27.619H26.6667V16.381V15.4286H24.7619H22.8571V18.2857V21.1429H24.7619H26.6667V20.1905V19.2381H27.619H28.5714V21.1429V23.0476H24.7619H20.9524V18.2857V13.5238H24.7619H28.5714V15.4286ZM13.3333 25.9048V26.8571H15.2381H17.1429V25.9048V24.9524H18.0952H19.0476V26.8571V28.7619H18.0952H17.1429V29.7143V30.6667H18.0952H19.0476V32.5714V34.4762H18.0952H17.1429V33.5238V32.5714H15.2381H13.3333V33.5238V34.4762H12.381H11.4286V32.5714V30.6667H12.381H13.3333V29.7143V28.7619H12.381H11.4286V26.8571V24.9524H12.381H13.3333V25.9048ZM22.8571 27.8095V30.6667H24.7619H26.6667V27.8095V24.9524H27.619H28.5714V28.7619V32.5714H27.619H26.6667V33.5238V34.4762H24.7619H22.8571V33.5238V32.5714H21.9048H20.9524V28.7619V24.9524H21.9048H22.8571V27.8095Z" fill="#0E0A47"/>
<path d="M52 20V17H55V8H52V5H58V17H61V20H52ZM72.88 17V14H63.88V5H75.88V8H66.88V11H72.88V14H75.88V17H72.88ZM63.88 20V17H72.88V20H63.88ZM81.76 14V11H78.76V8H81.76V5H84.76V8H87.76V11H84.76V14H81.76ZM81.88 10.88H84.64V8.12H81.88V10.88ZM102.52 8V5H111.52V8H102.52ZM108.52 17V14H102.52V11H99.52V8H102.52V11H108.52V14H111.52V17H108.52ZM99.52 20V17H108.52V20H99.52ZM114.4 20V5H123.4V8H117.4V11H123.4V14H117.4V17H123.4V20H114.4ZM126.28 20V5H129.28V8H132.28V11H135.28V14H132.28V11H129.28V20H126.28ZM138.28 20V11H135.28V8H138.28V5H141.28V20H138.28ZM144.16 20V8H147.16V5H153.16V8H156.16V20H153.16V14H147.16V20H144.16ZM147.16 11H153.16V8.12H147.16V11ZM159.04 20V5H162.04V8H165.04V11H168.04V14H171.04V5H174.04V20H171.04V17H168.04V14H165.04V11H162.04V20H159.04ZM176.92 20V8H179.92V5H185.92V8H188.92V20H185.92V14H179.92V20H176.92ZM179.92 11H185.92V8.12H179.92V11ZM51.25 41V29.75H58V32H60.25V38.75H58V41H51.25ZM53.5 38.75H57.91V32H53.5V38.75ZM62.41 41V32H64.66V29.75H69.16V32H71.41V41H69.16V36.5H64.66V41H62.41ZM64.66 34.25H69.16V32.09H64.66V34.25ZM86.98 34.25V32H82.48V29.75H86.98V32H89.23V34.25H86.98ZM82.48 41V38.75H80.23V32H82.48V38.75H86.98V41H82.48ZM86.98 38.75V36.5H89.23V38.75H86.98ZM93.64 41V38.75H91.39V32H93.64V29.75H98.14V32H100.39V38.75H98.14V41H93.64ZM93.64 38.66H98.14V32.09H93.64V38.66ZM102.55 41V29.75H104.8V32H107.05V34.25H109.3V36.5H107.05V34.25H104.8V41H102.55ZM111.55 41V34.25H109.3V32H111.55V29.75H113.8V41H111.55ZM115.96 41V29.75H122.71V32H124.96V34.25H122.71V36.5H118.21V41H115.96ZM118.21 34.25H122.62V32H118.21V34.25ZM129.37 41V38.75H127.12V29.75H129.37V38.75H133.87V41H129.37ZM133.87 38.75V29.75H136.12V38.75H133.87ZM140.53 41V32H138.28V29.75H145.03V32H142.78V41H140.53ZM147.19 41V32H149.44V29.75H153.94V32H156.19V41H153.94V36.5H149.44V41H147.19ZM149.44 34.25H153.94V32.09H149.44V34.25ZM165.1 34.25V32H160.6V29.75H165.1V32H167.35V34.25H165.1ZM160.6 41V38.75H158.35V32H160.6V38.75H165.1V41H160.6ZM165.1 38.75V36.5H167.35V38.75H165.1ZM160.6 43.25V41H162.85V43.25H160.6ZM158.35 45.5V43.25H160.6V45.5H158.35ZM169.51 41V32H171.76V29.75H176.26V32H178.51V41H176.26V36.5H171.76V41H169.51ZM171.76 34.25H176.26V32.09H171.76V34.25ZM178.51 25.25H176.26V23H178.51V25.25ZM169.51 27.5V25.25H171.76V23H174.01V25.25H176.26V27.5H174.01V25.25H171.76V27.5H169.51ZM182.92 41V38.75H180.67V32H182.92V29.75H187.42V32H189.67V38.75H187.42V41H182.92ZM182.92 38.66H187.42V32.09H182.92V38.66Z" fill="#0E0A47"/>
</svg>
