<svg width="240" height="99" viewBox="0 0 240 99" fill="none" xmlns="http://www.w3.org/2000/svg">
<path d="M14.8982 8.38012V16.7603H7.44908H0V49.35V81.9398H7.44908H14.8982V90.32V98.7002H120H225.102V90.32V81.9398H232.551H240V50.2812V18.6226L232.621 18.576L225.218 18.5062L225.148 9.24142L225.102 -9.91821e-05H120H14.8982V8.38012ZM221.424 12.966L221.494 22.2307L228.896 22.3006L236.275 22.3471V47.4878V72.6284H228.826H221.377V81.0086V89.3888H120H18.6227V81.0086V72.6284H11.1736H3.72454V46.5566V20.4849H11.1736H18.6227V12.1047V3.72443H120H221.377L221.424 12.966ZM14.8982 78.2152V80.0775H8.38021H1.86227V78.2152V76.353H8.38021H14.8982V78.2152ZM238.138 78.2152V80.0775L231.69 80.0309L225.218 79.9611L225.148 78.1454L225.079 76.353H231.62H238.138V78.2152ZM223.24 94.9757V96.8379H120H16.7604V94.9757V93.1134H120H223.24V94.9757Z" fill="#0E0A47"/>
<path d="M22.3469 9.31095V11.1732H24.2092H26.0715V9.31095V7.44868H24.2092H22.3469V9.31095Z" fill="#0E0A47"/>
<path d="M29.7957 11.1735V14.8981H26.0712H22.3466V19.5537V24.2094H14.8976H7.44849V46.5566V68.9039H14.8976H22.3466V73.5596V78.2152H26.0712H29.7957V81.9398V85.6643H119.999H210.203V81.9398V78.2152H213.928H217.652V73.5596V68.9039H225.101H232.55V47.4878V26.0717L225.171 26.0251L217.769 25.9553L217.699 20.4383L217.652 14.9213L213.974 14.8515L210.32 14.7817L210.25 11.1037L210.18 7.44899H119.999H29.7957V11.1735ZM208.387 12.966L208.457 16.6439L212.112 16.7138L215.79 16.7836L215.836 22.3006L215.906 27.8176L223.309 27.8874L230.688 27.934V47.4878V67.0416H223.239H215.79V71.6973V76.353H212.065H208.341V80.0775V83.802H119.999H31.658V80.0775V76.353H27.9335H24.2089V71.6973V67.0416H16.7598H9.31076V46.5566V26.0717H16.7598H24.2089V21.416V16.7603H27.9335H31.658V13.0358V9.31126H119.999H208.318L208.387 12.966Z" fill="#0E0A47"/>
<path d="M100.562 13.9674V14.8985H102.448H104.31L104.24 15.7598L104.171 16.6444L102.378 16.7142L100.562 16.784V19.5774V22.3708L103.309 22.301L106.033 22.2312L106.103 21.3466L106.173 20.4853H104.31H102.425V19.5542V18.6463L104.24 18.5765L106.033 18.5066L106.103 15.7598L106.173 13.0362H103.356H100.562V13.9674Z" fill="#0E0A47"/>
<path d="M109.875 17.6919V22.3708L113.553 22.301L117.208 22.2312L117.278 17.6221L117.324 13.0362H113.6H109.875V17.6919ZM115.415 17.6221L115.345 20.3689L113.553 20.4387L111.737 20.5086V17.6919V14.8985H113.6H115.485L115.415 17.6221Z" fill="#0E0A47"/>
<path d="M121.047 13.9674V14.8985H122.932H124.795L124.725 15.7598L124.655 16.6444L122.863 16.7142L121.047 16.784V19.5774V22.3708L123.794 22.301L126.517 22.2312L126.587 21.3466L126.657 20.4853H124.795H122.909V19.5542V18.6463L124.725 18.5765L126.517 18.5066L126.587 15.7598L126.657 13.0362H123.84H121.047V13.9674Z" fill="#0E0A47"/>
<path d="M130.359 15.8296V18.623H132.245H134.107L134.037 19.4843L133.968 20.3689L132.175 20.4387L130.359 20.5086V21.4397V22.3708L133.106 22.301L135.83 22.2312L135.9 19.4843L135.969 16.7608H134.084H132.222V15.8296V14.9218L134.037 14.8519L135.83 14.7821L135.9 13.8975L135.969 13.0362H133.176H130.359V15.8296Z" fill="#0E0A47"/>
<path d="M63.3157 30.727V35.3827H66.1091H68.9025V37.245V39.1072H66.1091H63.3157V40.0384V40.9928L66.9937 40.923L70.6484 40.8531L70.7182 36.244L70.7648 31.6582H67.9713H65.1779V29.7959V27.9569L67.9248 27.8871L70.6484 27.8172L70.7182 26.9327L70.788 26.0714H67.0635H63.3157V30.727Z" fill="#0E0A47"/>
<path d="M74.4907 33.5204V40.9928L78.1687 40.923L81.8234 40.8531L81.8932 39.9685L81.9631 39.1072H79.1697H76.353V37.245V35.406L79.0998 35.3362L81.8234 35.2663L81.8932 33.4506L81.9631 31.6582H79.1464H76.353V29.7959V27.9569L79.0998 27.8871L81.8234 27.8172L81.8932 26.9327L81.9631 26.0714H78.2385H74.4907V33.5204Z" fill="#0E0A47"/>
<path d="M85.6641 33.5437V40.9928L86.5486 40.923L87.4099 40.8531L87.4798 36.244L87.5263 31.6582H88.4575H89.3886V33.5204V35.406L91.2043 35.3362L92.9967 35.2663L93.0666 33.4506L93.1364 31.6582H94.0443H94.9754V36.3371V40.9928L95.86 40.923L96.7213 40.8531L96.7911 33.4506L96.8377 26.0714H94.9987H93.1364L93.0666 26.9327L92.9967 27.8172L91.2043 27.8871L89.3886 27.9569V27.0025V26.0714H87.5263H85.6641V33.5437Z" fill="#0E0A47"/>
<path d="M100.562 33.5437V40.9928L101.447 40.923L102.308 40.8531L102.378 38.1063L102.448 35.3827H105.218H108.012V38.1994V40.9928L108.896 40.923L109.757 40.8531L109.827 33.4506L109.874 26.0714H105.218H100.562V33.5437ZM107.965 29.7261L107.895 31.5418L105.172 31.6116L102.425 31.6815V29.7959V27.9336H105.218H108.035L107.965 29.7261Z" fill="#0E0A47"/>
<path d="M113.6 33.5437V40.9928L114.485 40.923L115.346 40.8531L115.416 36.244L115.462 31.6582H116.394H117.325V34.4516V37.245H118.256H119.187V39.1072V40.9928L121.003 40.923L122.795 40.8531L122.865 33.4506L122.911 26.0714H121.98H121.049L121.003 30.6572L120.933 35.2663L120.071 35.3362L119.187 35.406V32.6126V29.7959H118.256H117.325V27.9336V26.0714H115.462H113.6V33.5437Z" fill="#0E0A47"/>
<path d="M126.634 33.5437V40.9928L127.519 40.923L128.38 40.8531L128.45 38.1063L128.52 35.3827H131.29H134.083V38.1994V40.9928L134.968 40.923L135.829 40.8531L135.899 33.4506L135.946 26.0714H131.29H126.634V33.5437ZM134.037 29.7261L133.967 31.5418L131.243 31.6116L128.497 31.6815V29.7959V27.9336H131.29H134.107L134.037 29.7261Z" fill="#0E0A47"/>
<path d="M145.256 27.0031V27.9342H146.187H147.119L147.072 33.4512L147.002 38.9914L146.141 39.0613C145.28 39.1311 145.256 39.1544 145.256 40.0622V40.9701H148.864H152.473V40.039V39.1078H153.404H154.335V33.5443V27.9575L153.474 27.8876C152.636 27.8178 152.589 27.7713 152.519 26.9332L152.449 26.0719H148.841H145.256V27.0031ZM150.843 28.8653V29.7965H151.774H152.729L152.659 32.52L152.589 35.2669L151.728 35.3367C150.913 35.4066 150.866 35.4531 150.797 36.2679C150.727 37.1059 150.703 37.1292 149.796 37.1292H148.864L148.795 32.52L148.748 27.9342H149.796H150.843V28.8653Z" fill="#0E0A47"/>
<path d="M158.292 33.5204V40.9695H159.107H159.922V38.1761V35.3827H162.715H165.509L165.532 37.8269C165.555 39.1771 165.578 40.4108 165.602 40.5505C165.602 40.7135 166.021 40.8764 166.51 40.923L167.371 40.9928V33.5437V26.0714H162.832H158.292V33.5204ZM165.555 29.7028C165.602 30.8202 165.532 31.5185 165.369 31.5883C165.252 31.6349 163.995 31.6349 162.575 31.6116L160.038 31.5418L159.968 29.7261L159.898 27.9336H162.692H165.462L165.555 29.7028Z" fill="#0E0A47"/>
<path d="M50.2812 34.4519V37.2686L53.0281 37.1987L55.7517 37.1289L55.8215 34.382L55.8913 31.6585H53.0747H50.2812V34.4519Z" fill="#0E0A47"/>
<path d="M176.729 34.382L176.799 37.1289L179.546 37.1987L182.27 37.2686V34.4519V31.6585H179.476H176.659L176.729 34.382Z" fill="#0E0A47"/>
<path d="M27.9343 48.4189V63.317L32.5434 63.2705L37.1293 63.2006L37.1991 62.316L37.269 61.4547H33.5444H29.7966V48.4189V35.383L39.0614 35.3364L48.3029 35.2666L48.3727 34.382L48.4426 33.5207H38.2001H27.9343V48.4189Z" fill="#0E0A47"/>
<path d="M184.179 34.3826L184.249 35.2672L197.238 35.337L210.204 35.3835V47.4883V59.5931H206.457H202.732L202.802 60.4544L202.872 61.3389L207.481 61.4088L212.067 61.4553V47.4883V33.5213H198.076H184.109L184.179 34.3826Z" fill="#0E0A47"/>
<path d="M171.142 44.6243L171.211 46.44L177.683 46.5098L184.131 46.5564V44.6941V42.8319H177.613H171.072L171.142 44.6243Z" fill="#0E0A47"/>
<path d="M40.9688 60.5235V72.6283L47.4401 72.5817L53.8882 72.5119L53.9581 67.9028L54.0046 63.3169H52.1424H50.2801V65.1792V67.0415H47.4867H44.6933V59.5924V52.1433H47.4867H50.2801V55.8679V59.6157L52.0958 59.5459L53.8882 59.476L53.9581 53.9358L54.0046 48.4188H47.4867H40.9688V60.5235Z" fill="#0E0A47"/>
<path d="M57.7312 60.5235V72.6283L64.2026 72.5817L70.6507 72.5119L70.7205 60.4537L70.7671 48.4188H64.2491H57.7312V60.5235ZM66.996 59.5226L66.9262 66.9251L64.2026 66.9949L61.4557 67.0648V59.5924V52.1433H64.2491H67.0425L66.996 59.5226Z" fill="#0E0A47"/>
<path d="M74.4907 60.5237V72.6517L76.3064 72.5819L78.0989 72.5121L78.1687 66.0407L78.2153 59.5926H79.1464H80.0775V60.547V61.4781L80.9621 61.4083C81.7769 61.3384 81.8234 61.2919 81.8932 60.4539C81.9631 59.6158 81.9864 59.5926 82.8942 59.5926H83.8021V66.1105V72.6517L85.6178 72.5819L87.4102 72.5121L87.4801 60.4539L87.5266 48.419H84.7565H81.9631L81.8932 50.2114L81.8234 52.0271L80.9621 52.0969L80.0775 52.1668V50.3045V48.419H77.2841H74.4907V60.5237Z" fill="#0E0A47"/>
<path d="M91.2515 60.5237V72.6517L93.0672 72.5819L94.8596 72.5121L94.9294 67.9262L94.976 63.3404L98.654 63.2706L102.309 63.2007L102.379 55.7982L102.425 48.419H96.8383H91.2515V60.5237ZM98.654 54.8671L98.5842 57.6139L96.7917 57.6837L94.976 57.7536V54.9369V52.1435H96.8383H98.7238L98.654 54.8671Z" fill="#0E0A47"/>
<path d="M106.148 60.5235V72.6283L111.689 72.5817L117.206 72.5119L117.275 60.4537L117.322 48.4188H115.46H113.598L113.551 57.6603L113.481 66.9251L111.689 66.9949L109.873 67.0648V57.7301V48.4188H108.011H106.148V60.5235Z" fill="#0E0A47"/>
<path d="M121.047 51.2124V54.0058H122.909H124.771V63.3171V72.6517L127.518 72.5819L130.242 72.5121L130.312 63.2706L130.358 54.029L132.174 53.9592L133.966 53.8894L134.036 51.1425L134.106 48.419H127.565H121.047V51.2124Z" fill="#0E0A47"/>
<path d="M137.808 60.5237V72.6517L139.624 72.5819L141.416 72.5121L141.486 67.9029L141.532 63.3171H144.326H147.119V67.9728V72.6285H148.865H150.611V60.5237V48.419H144.209H137.808V60.5237ZM147.073 53.9359L147.003 55.7516L144.279 55.8215L141.532 55.8913V54.0058V52.1435H144.326H147.142L147.073 53.9359Z" fill="#0E0A47"/>
<path d="M154.569 60.5236V72.6284H156.431H158.293V74.4906V76.3529H160.039H161.785V74.4906V72.6284H164.579H167.372V67.9727V63.317H165.626H163.88L163.857 64.8301C163.834 65.6681 163.81 66.4829 163.787 66.6225C163.764 66.8553 163.042 66.9252 160.97 66.9252H158.177L158.107 59.5226L158.061 52.1434H160.947H163.857V55.7981V59.4761L165.603 59.5459L167.372 59.6158V54.0057V48.4189H160.97H154.569V60.5236Z" fill="#0E0A47"/>
<path d="M171.143 60.4539L171.213 72.5121L173.029 72.5819L174.821 72.6517V67.9728V63.3171H177.615H180.408L180.455 67.9029L180.525 72.5121L182.34 72.5819L184.133 72.6517V60.5237V48.419H177.615H171.097L171.143 60.4539ZM180.408 54.0058V55.8913L177.685 55.8215L174.938 55.7516L174.868 53.9359L174.798 52.1435H177.615H180.408V54.0058Z" fill="#0E0A47"/>
<path d="M187.903 60.4537L187.973 72.5119L194.444 72.5817L200.892 72.6283V60.5235V48.4188H194.374H187.856L187.903 60.4537ZM197.168 59.5924V67.0648L194.444 66.9949L191.697 66.9251L191.627 59.5226L191.581 52.1433H194.374H197.168V59.5924Z" fill="#0E0A47"/>
<path d="M213.975 9.24127L214.044 11.057L215.86 11.1268L217.653 11.1967V9.31111V7.44884H215.79H213.905L213.975 9.24127Z" fill="#0E0A47"/>
<path d="M22.3469 83.8022V85.6877L24.1626 85.6179L25.9551 85.5481L26.0249 83.7324L26.0947 81.9399H24.2092H22.3469V83.8022Z" fill="#0E0A47"/>
<path d="M213.975 83.7324L214.044 85.5481L215.86 85.6179L217.653 85.6877V83.8022V81.9399H215.79H213.905L213.975 83.7324Z" fill="#0E0A47"/>
</svg>
